# xmcd
#
# Track frame offsets:
#	150
#	13756
#	30821
#	45914
#	58539
#	81447
#	94227
#	123964
#	148526
#	158799
#	168842
#	183965
#	198228
#	218335
#	230197
#
# Disc length: 3228 seconds
#
# Revision: 0
# Processed by: cddbd v1.5.2PL0 Copyright (c) Steve Scherf et al.
# Submitted via: EZCDAudioConverter 2.1.7.1
#
DISCID=b70c9a0f
DTITLE=V/A - 25 Years Of Mr. Bongo 2/2
DYEAR=1900
DGENRE=
TTITLE0=Hollie Cook  - Looking For Real Love
TTITLE1=Mungo's Hi-Fi - Scrub A Dub Style (Featuring Sugar Minott) [Prince Fat
TTITLE1=ty Remix]
TTITLE2=Horseman  - Horsemove (2014)
TTITLE3=Karol Conka - Boa Noite
TTITLE4=Junip - Oba, Lá Vem Ela
TTITLE5=Quarteto Em Cy - Tudo Que Vocé Podia Ser
TTITLE6=Labi Siffre - I Got The
TTITLE7=Olli Ahvenlahti - Grandma's Rocking Chair
TTITLE8=Hareton and Meta  - KM110 
TTITLE9=Noriel Vilela - 16 Toneladas
TTITLE10=Juca Chaves - Take Me Back To Piauí
TTITLE11=Jorge Ben and Toquinho   - Carolina, Carol Bela
TTITLE12=Pete Rodriguez - I Like It Like That
TTITLE13=Beny Moré Y Su Orq. Gigante  - Babarabatiri
TTITLE14=Incredible Bongo Band  - Bongo Rock
EXTD=
EXTT0=
EXTT1=
EXTT2=
EXTT3=
EXTT4=
EXTT5=
EXTT6=
EXTT7=
EXTT8=
EXTT9=
EXTT10=
EXTT11=
EXTT12=
EXTT13=
EXTT14=
PLAYORDER=
